<?xml version="1.0" encoding="utf-8"?>
<!-- Generator: Adobe Illustrator 22.1.0, SVG Export Plug-In . SVG Version: 6.00 Build 0)  -->
<svg version="1.1" id="Layer_1" xmlns="http://www.w3.org/2000/svg" xmlns:xlink="http://www.w3.org/1999/xlink" x="0px" y="0px"
	 viewBox="0 0 662 244" style="enable-background:new 0 0 662 244;" xml:space="preserve">
<style type="text/css">
	.st0{fill:#E5FFFF;}
</style>
<g>
	<g>
		<path class="st0" d="M186.4,88.5c0,2.8-1.3,5-3.8,6.8c-2.2,1.6-4.8,2.4-7.7,2.4c-4.6,0-8.2-1.7-10.8-5.1
			c-2.5-3.1-3.8-6.9-3.8-11.4c0-1.1,0.1-2.2,0.3-3.2c-0.9-1.1-1.4-2.4-1.4-3.9c0-1,0.3-2.5,0.8-4.4c0.5-1.9,0.8-3.3,0.8-4.3
			c0-2.4-0.7-4.2-2.2-5.4c-0.6-0.5-2.1-1.3-4.6-2.3c-2.1-0.9-3.6-2-4.5-3.2l-1,1.3l-0.1,0.8c0,1.3,0.2,3.2,0.5,5.9
			c0.4,2.7,0.5,4.7,0.5,6.1c0.4,0.5,0.8,1.4,1,2.6c0.4,1.7,0.6,2.7,0.6,2.9c0.5,1.7,2,2.9,4.3,3.6c2.1,0.7,3.2,1.6,3.2,2.9
			c0,1.4-1,2.4-3,3.2c-1.5,0.6-3.2,0.9-5.1,0.9s-4.6-0.4-8.2-1.2c-3.6-0.8-6.4-1.2-8.3-1.2c-1,0-2.3,0.6-3.9,1.7
			c-1.6,1.1-2.9,1.7-4,1.7c-0.6,0-1.2-0.3-1.9-0.9c-0.7-0.6-1-1.1-1-1.7c0-2.3,0.7-4.1,2.1-5.2c0-0.1,1.4-0.9,4.1-2.4
			c1.7-1,2.8-2.3,3.3-3.9c1.1-3.3,1.6-10,1.6-20c0-2.6,0-6.1-0.1-10.4c-0.1-4.3-0.1-7-0.1-8.3c0-1.2-0.9-2.9-2.8-5
			c-1.9-2.1-2.8-3.6-2.8-4.6c0-0.6,0.4-1.3,1.2-2.2c0.8-0.8,1.5-1.3,2-1.3c1,0,1.9,0.4,2.8,1.1c0.9,0.8,1.7,1.5,2.5,2.1
			c1.6-0.1,4.5-0.3,8.7-0.8c3.6-0.4,6.5-0.6,8.6-0.6c5.9,0,10.4,1.3,13.6,3.9c2.3,1.9,5,5.7,8.2,11.5c-1.2,7.3-4.4,13-9.6,17.1
			c0.1,0.8,1.1,1.7,3,2.8c2.2,1.3,3.8,2.6,4.8,4c1.7,2.4,2.5,5.7,2.5,9.9c0,1.9-0.3,4.8-0.9,8.8c-0.6,3.9-0.9,6.8-0.9,8.8
			c0,1.5,0.5,2.3,1.5,2.3c0.2,0,0.4,0,0.6-0.1v-0.8c-0.1-1.3,0.4-2.6,1.5-3.8c1.1-1.2,2.4-1.8,3.7-1.8
			C185,84.5,186.4,85.8,186.4,88.5z M159.8,42.4c0-4.8-0.4-8.2-1.2-10.2c-0.3-0.8-1-1.6-2.1-2.3c-1.1-0.7-2.1-1.1-3-1.1
			c-1.3,0-2.3,0.4-2.9,1.3c-0.4,0.5-0.7,2.4-1.1,5.5c-0.2,2.6-0.4,4.5-0.4,5.9c0,2.5,0.3,5,0.8,7.5c0.7-0.2,1.4-0.3,2.2-0.3
			c2.6,0,4.1,0.9,4.7,2.6C158.9,49.4,159.8,46.5,159.8,42.4z"/>
		<path class="st0" d="M210.4,52.4c0.1,1.4-1.4,3-4.4,4.6c-4.8,2.6-7.5,4.3-8.3,5c-3.1,2.3-4.6,5.1-4.6,8.3c1,0.7,2.4,1.1,4.2,1.2
			l4.5,0.2c0.4-0.4,0.7-1.7,0.9-3.9c0.1-1.8,0.8-2.7,2.2-2.7c2.3-0.1,3.5,1.3,3.5,4c0.1,3.8-2.3,7.8-7.2,11.7v0.6
			c0,2.2-0.8,3.3-2.4,3.3c-1.5,0-5.1-1.2-10.7-3.6c-5.6-2.4-8.4-4-8.4-4.8c0-0.7,0.3-1.5,1-2.4c0.7-0.9,1-1.7,1.1-2.2
			c0.2-1.1,0.2-3.8,0.2-8.1c0-2.7,0-5.4,0-8c0-3.4-0.2-6.1-0.7-7.9c-0.1-0.4-0.3-0.9-0.9-1.5c-0.5-0.6-0.8-1.2-0.8-1.8
			c0-0.3,0.1-0.5,0.2-0.6c0.7-0.9,2.4-1.7,5-2.3c3.7-1,6.1-1.8,7.4-2.3c2.8-1.3,5-3.1,6.4-5.4c1.4,0,3.8,2.9,7.1,8.6
			C208.8,47.6,210.4,51,210.4,52.4z M197.5,54.3c0-1-0.3-2.4-0.9-4.1c-0.8-1.9-1.6-3.2-2.5-3.8v7.8c0,1.1,0.4,2,1.1,2.7
			C196.4,56.2,197.2,55.3,197.5,54.3z"/>
		<path class="st0" d="M237.2,34.8c0,1.1-0.7,2.5-2.2,4.1c-1.4,1.6-2.2,2.9-2.2,3.9c0,0.6,0.1,1.2,0.5,1.8c0,0.9-1.1,1.3-3.4,1.1
			c-1-0.9-2.1-1.4-3.2-1.4c-0.9,0-1.4,0.3-1.4,0.8c0,1.4,0.1,4.2,0.2,8.6c0.1,3.5,0.1,6.4,0,8.6c-0.1,3.1-0.3,6-0.6,8.6l4.9,1.1
			c2.3,0.5,3.5,1.3,3.6,2.3c0.1,1.2-0.7,2.7-2.2,4.4c-1.5,1.7-2.3,3.2-2.3,4.2c0,1.1,0,1.6,0,1.5c-0.1,0.2-0.9,0.4-2.3,0.4
			c-1,0-3.7-1.2-8.3-3.6c-4.6-2.4-7-3.8-7.2-4.4c1.5-6.9,2.3-14.6,2.3-22.9c0-2.9-0.1-5.9-0.3-8.8c-0.2-0.2-1.3-0.5-3.2-1.1
			c-1.1-0.4-1.7-1.2-1.7-2.6c0-2.8,0.8-4.2,2.3-4.2c1.2,0,1.9-0.1,2.2-0.2c0.7-0.4,1-1.3,1-2.8c0-1.1-0.4-2.7-1.2-4.6
			c-0.8-2-1.2-3.5-1.2-4.6c0-0.6,0.8-0.9,2.3-0.9c0.7,0,1.6,0.3,2.6,0.9c1,0.6,1.7,0.9,2.2,0.9c4.2-4.7,7-7,8.6-7
			c0.7,0,1.8,0.7,3.2,2c-0.2,1.2-1.2,3-3,5.4c-1.6,2.2-2.3,4-2.3,5.6c0,2,0.1,3.2,0.3,3.8c0.4,1.3,1.3,1.9,2.8,1.9
			c1.4,0,2.7-0.9,3.8-2.8s2.1-2.8,2.7-2.8c0.7,0,1.4,0.3,2,1C236.9,33.4,237.2,34.1,237.2,34.8z"/>
		<path class="st0" d="M269.9,74.5c0,0.4-0.2,0.9-0.5,1.4c-1.3,0.6-2.3,2.3-2.9,5.1c-0.6,2.5-1.9,3.7-3.8,3.7c-1.6,0-3.4-1-5.6-3.1
			c-2.2-2-3.9-3.1-5.1-3.1c-0.2,0-0.7,0.1-1.4,0.2c-0.2,0.4-0.3,0.8-0.4,1.3c0,0.4,0,0.9,0.1,1.5c0.1,0.7,0.1,1.1,0.1,1.4
			c0,1.4-0.6,2.2-1.9,2.2c-2.1,0-4.5-1-7-2.9c-3.4-2.5-5.5-4-6.4-4.3c-0.2-0.5-0.3-0.9-0.3-1c0-0.7,0.4-1.5,1.2-2.4
			c0.8-1,1.2-1.7,1.3-2.3c0.2-2.2,0.4-6,0.4-11.5c0-4.4-0.2-8.5-0.6-12.3c-0.6-0.5-1.2-1.1-1.8-1.5c-0.7-0.7-1.1-1.4-1.1-2.1
			c0,0.2,0.2-0.4,0.6-1.6c1.5-0.5,2.4-2.1,2.8-5c0.4-2.5,1.3-3.8,2.8-3.8l1.6,0.3c0.5,0.8,2.2,2,5.1,3.6c2.5,1.3,3.8,2.6,3.8,3.9
			c0,0.1-0.5,1.1-1.4,3.2c-0.3,0.7-0.5,2.1-0.5,4.2c0,1.6,0.1,4.1,0.3,7.3c0.2,3.2,0.3,5.2,0.3,5.9c0,2.9-0.4,5.6-1.1,7.9
			c1.3,0.9,2.6,1.4,3.9,1.4c0.8,0,1.6-0.2,2.5-0.6c-0.2-1.9-0.4-4.1-0.4-6.6c0-1.3,0.1-3.1,0.2-5.6c0.1-2.5,0.2-4.4,0.2-5.7
			c0-1.8-0.1-3.4-0.3-4.9c-1.9-0.7-2.9-1.9-2.9-3.5c0-1.1,0.8-2.5,2.4-4c1.6-1.6,2.4-2.9,2.4-4.1c0-0.4-0.1-0.7-0.2-1.1
			c1-1.1,1.9-1.6,2.8-1.6c0.8,0,2,0.8,3.7,2.3c2,1.9,3.3,2.9,4.1,3.2c1.8,0.8,2.6,1.5,2.4,2.1c-0.1,0.8-0.5,1.6-1.2,2.4
			s-1,1.5-1.1,1.9c-0.2,1.9-0.4,6.3-0.4,13.4c0,6.3,0.1,9.8,0.5,10.5c0.1,0.3,0.7,1,1.6,2C269.6,72.8,269.9,73.7,269.9,74.5z"/>
		<path class="st0" d="M301.7,40.6c0,1.2-0.9,2.7-2.7,4.6c-1.8,1.8-2.7,3.7-2.7,5.7c0,1.1-0.8,1.6-2.4,1.6c-1.9,0-3.1-0.9-3.6-2.8
			c-0.5-1.8-1.1-2.8-1.9-2.8c-0.9,0-1.4,1.2-1.4,3.7c0,0.8,0.1,2.1,0.3,3.7c0.2,1.7,0.3,2.9,0.3,3.7c0,6.3-0.5,10.1-1.6,11.5
			c0.4,0.9,1.9,1.6,4.4,2.2c2.3,0.5,3.4,1.4,3.4,2.8c0,1.5-0.8,2.6-2.3,3.2c-2,0.8-3.1,1.4-3.3,1.6c-0.2,0.2-0.5,1.4-0.8,3.5
			c-0.3,1.6-1,2.4-2.2,2.4c-1.1,0-3.4-1.1-6.9-3.2c-2.4-1.4-4.8-2.9-7.1-4.3c-0.1-0.3-0.2-0.7-0.2-1.1c0-0.5,0.4-1.2,1.1-1.9
			c0.7-0.8,1.1-1.2,1.3-1.5c0.8-1.6,1.2-5.7,1.2-12.2c0-6.6-0.2-10.6-0.5-11.8c-0.1-0.5-0.8-1.2-2.2-2.1c-1.3-0.9-2-1.8-2-2.5
			c0-0.5,0.3-1.1,1-1.8c0.7-0.7,1.5-2.4,2.3-5.2c0.7-2.2,1.6-3.2,2.8-3.2c4.5,0,7.9,2,10.5,5.9c1.1-0.1,2-1,2.7-2.8
			c0.7-1.7,1.4-2.6,2.3-2.6c1.1,0,3.1,0.7,5.9,2.1C300.3,38.3,301.7,39.5,301.7,40.6z"/>
		<path class="st0" d="M338.3,74.6v0.5c-2.2,1.7-3.5,2.9-4.1,3.6c-1.3,1.5-1.8,3.2-1.5,5.1c-0.4,0.8-0.9,1.2-1.5,1h-0.9
			c-0.9,0-2.7-1.1-5.5-3.4c-2.7-2.3-4.1-3.8-4.1-4.4c0-0.7,0.3-1.7,0.9-3c0.6-1.3,0.9-2.3,0.9-3.1c0-0.7-0.1-1.8-0.4-3.2
			c-0.2-1.4-0.4-2.4-0.4-3.2c0-4,0.5-9.7,1.4-17.3c-0.9-0.7-1.8-1.4-2.7-2.1c-1.1-0.7-2.2-1.1-3.2-1l-0.5,0.1
			c-0.3,0.7-0.5,1.5-0.5,2.6c0,1.3,0.2,2.6,0.6,3.8c-0.4,1.1-0.5,2.4-0.5,3.9c0,1,0.1,2.6,0.4,4.7c0.3,2.1,0.4,3.7,0.4,4.7
			c0,0.8-0.2,1.9-0.7,3.3c-0.5,1.4-0.7,2.4-0.7,2.9c0,0.8,0.7,1.4,2.2,2c1.5,0.5,2.2,1.1,2.2,1.8c0,0.6-0.9,1.8-2.8,3.7
			c-1.8,1.9-2.6,3.9-2.3,6.2c-0.5,0.5-1.2,0.8-2.2,0.8c-0.2,0-0.6-0.1-1.2-0.3c-0.6-0.2-1-0.3-1.1-0.3c-0.5-0.7-2.2-1.9-5.1-3.4
			c-2.3-1.3-3.5-2.7-3.5-4.2c0-0.7,0.3-1.4,0.9-2.1c0.6-0.8,1-1.3,1-1.8c0.4-2.3,0.6-7.9,0.6-16.7c0-2.5-0.2-5.1-0.5-7.6
			c-0.2-0.2-1-0.8-2.4-1.5c-1.1-0.6-1.7-1.2-1.7-1.9c0,0.1,0.2-0.4,0.5-1.4c1.6-0.4,2.6-1.4,2.9-3c0.2-1.3,0.5-2.6,0.7-4
			c0.6-1.3,2.1-2,4.4-2c1.6,0,3.3,0.7,5,2.2s2.9,2.2,3.7,2.2c1,0,1.7-1.2,2.1-3.5c0.7-0.7,1.5-1.1,2.3-1.1c1.1,0,3.2,0.9,6,2.6
			c2.9,1.7,5.4,2.6,7.4,2.5c0.6,0.6,0.9,1.3,0.9,2c0,0.7-0.3,1.6-0.8,2.9c-0.5,1.3-0.8,2.3-0.8,3.1c0,1.6-0.2,3.9-0.5,7
			c-0.3,3.1-0.5,5.5-0.5,7c0,4.1,0.3,6.9,0.8,8.4c0.2,0.6,0.9,1.3,2.3,2.1C337.7,72.8,338.3,73.6,338.3,74.6z"/>
		<path class="st0" d="M394.5,74.1c-1,0.8-2.8,1.7-5.4,2.6c-2.8,1-4.6,1.8-5.6,2.5c-1.7,1.3-2.5,3-2.5,5.2c-1.1,0.2-1.9,0.4-2.5,0.4
			c-2,0-4.6-1-7.7-3.1c-3.4-2.2-5.9-3.5-7.5-3.8c-0.4-0.5-0.5-1.1-0.5-1.7c0-0.7,0.3-1.7,0.9-3c0.6-1.3,0.9-2.3,0.9-3.1V56.8
			c0-1.3-0.3-3.1-0.8-5.5c-0.5-2.4-0.8-4.2-0.8-5.3c0-1.7,1.2-3,3.6-3.9c2-0.7,4-1.3,6-1.9c1.1-0.6,2.1-1.8,3-3.7
			c0.7-1.6,1.7-2.3,3-2.3c1,0,3.2,1.1,6.6,3.4c3.4,2.3,6,3.5,7.8,3.7c0.5,0.7,0.7,1.6,0.7,2.7c0,0.8-0.2,1.9-0.5,3.4
			c-0.3,1.5-0.5,2.6-0.5,3.4c0,8.4,0,12.3,0,11.8C392.9,67.7,393.5,71.5,394.5,74.1z M381.5,71.7c-0.5-1.8-0.7-4.1-0.7-7
			c0-1.3,0.1-3.1,0.2-5.5c0.1-2.4,0.2-4.3,0.2-5.5c0-2.1-0.2-4.2-0.5-6.2c-1.1-1.1-2.4-1.6-4-1.6c-0.2,3.4-0.4,6-0.4,7.8
			c0,1,0.1,2.4,0.4,4.2c0.2,1.8,0.4,3.2,0.4,4.1c0,0.8-0.1,2-0.4,3.6s-0.4,2.8-0.4,3.7c0,0.9,0.1,1.7,0.4,2.3
			c1.6,0.5,2.7,0.8,3.2,0.8C380.4,72.2,381,72,381.5,71.7z"/>
		<path class="st0" d="M424.3,24.8c-0.1,0.1-1.1,1-3.2,2.8c-1.4,1.1-2.1,2.2-2.3,3.4c-0.4,0.4-0.9,0.6-1.7,0.6
			c-1.4,0-2.6-0.9-3.7-2.6c-1.1-1.7-2.1-2.6-3-2.6l-0.8,0.2c0.9,1.9,1.4,3.4,1.5,4.6c0,0.1,0,1.7,0,4.6c0,1,1.3,1.5,4,1.5
			c0.5,0,1.3-0.2,2.3-0.6c1-0.4,1.8-0.6,2.3-0.6c0.8,0,1.4,0.4,1.9,1.2c-0.7,1-0.9,2.6-0.8,4.7c0.1,2.5,0.1,4.1-0.1,4.9
			c-0.4,1.6-1.6,2.3-3.4,2.3l-0.7-0.1c-0.1-0.1-0.5-0.9-1.2-2.4c-0.5-1.2-1.1-1.8-1.7-1.8c-0.4,0-0.9,0.1-1.4,0.3
			c-0.8,1.8-1.2,4-1.2,6.7c0,9.1-0.5,15.4-1.6,18.8c0.5,1.1,2.3,2,5.4,2.6c2.7,0.6,4.1,1.7,4.1,3.2l-0.2,1.4c-1.3,1.2-2.1,2-2.3,2.5
			c-0.2,0.5-0.4,1.6-0.4,3.2c0,0.7-0.3,1.1-0.8,1.4c-0.5,0.3-1,0.6-1.6,0.9c-1.6-0.2-4.7-1.4-9.2-3.5c-4.8-2.3-7.1-4-7.1-5
			c0-0.7,0.2-1.8,0.7-3.2s0.7-2.6,0.7-3.6c0-1,0.2-2.4,0.5-4.4c0.3-2,0.5-3.5,0.5-4.4c0-1.8,0-4.6-0.1-8.4c-0.1-3.8-0.1-6.6-0.1-8.4
			c-0.4-0.4-1.6-0.7-3.6-0.9c-1.3-0.2-2-1.4-2-3.5c0-1.9,0.9-2.9,2.6-2.9c1.4,0,2.5-0.5,3.3-1.4c0-2.5-0.2-4.3-0.5-5.4
			c-0.3-1-1.2-2.6-2.6-4.9l-0.2-0.5c0-0.5,0.2-1,0.7-1.3c0.5-0.3,0.9-0.6,1.4-0.9c6.7-1,11.5-3.2,14.3-6.6h0.5c1.5,0,3.2,1,5.1,3
			c1.9,2,3.6,3.1,5,3.1L424.3,24.8z"/>
		<path class="st0" d="M475.2,34.8c0,1.1-0.7,2.5-2.2,4.1c-1.4,1.6-2.2,2.9-2.2,3.9c0,0.6,0.1,1.2,0.5,1.8c0,0.9-1.1,1.3-3.4,1.1
			c-1-0.9-2.1-1.4-3.2-1.4c-0.9,0-1.4,0.3-1.4,0.8c0,1.4,0.1,4.2,0.2,8.6c0.1,3.5,0.1,6.4,0,8.6c-0.1,3.1-0.3,6-0.6,8.6l4.9,1.1
			c2.3,0.5,3.5,1.3,3.6,2.3c0.1,1.2-0.7,2.7-2.2,4.4c-1.5,1.7-2.3,3.2-2.3,4.2c0,1.1,0,1.6,0,1.5c-0.1,0.2-0.9,0.4-2.3,0.4
			c-1,0-3.7-1.2-8.3-3.6c-4.6-2.4-7-3.8-7.2-4.4c1.5-6.9,2.3-14.6,2.3-22.9c0-2.9-0.1-5.9-0.3-8.8c-0.2-0.2-1.3-0.5-3.2-1.1
			c-1.1-0.4-1.7-1.2-1.7-2.6c0-2.8,0.8-4.2,2.3-4.2c1.2,0,1.9-0.1,2.2-0.2c0.7-0.4,1-1.3,1-2.8c0-1.1-0.4-2.7-1.2-4.6
			c-0.8-2-1.2-3.5-1.2-4.6c0-0.6,0.8-0.9,2.3-0.9c0.7,0,1.6,0.3,2.6,0.9c1,0.6,1.7,0.9,2.2,0.9c4.2-4.7,7-7,8.6-7
			c0.7,0,1.8,0.7,3.2,2c-0.2,1.2-1.2,3-3,5.4c-1.6,2.2-2.3,4-2.3,5.6c0,2,0.1,3.2,0.3,3.8c0.4,1.3,1.3,1.9,2.8,1.9
			c1.4,0,2.7-0.9,3.8-2.8s2.1-2.8,2.7-2.8c0.7,0,1.4,0.3,2,1C474.9,33.4,475.2,34.1,475.2,34.8z"/>
		<path class="st0" d="M506.8,42.3c0,0.6-0.3,1.4-0.9,2.4c-0.6,1-0.9,1.7-0.9,2.2c-0.4,2.9-0.6,7.2-0.6,12.8c0,5.6,0.7,10.6,2.1,15
			c-0.5,0.7-2.2,2-5.1,3.8c-2.4,1.4-3.6,3-3.6,4.8c0,0.1,0.2,0.9,0.5,2.3c1.6,0.9,2.3,2.3,2.3,4.3l-0.3,1.9
			c-1.3,1.1-2.5,1.7-3.6,1.7c-1.4,0-2.5-0.8-3.4-2.4c-0.8-1.4-1.2-2.8-1.2-4.3c0-1.4,0.3-3.4,0.8-6c0.5-2.6,0.8-4.6,0.8-5.9
			c0-2-0.2-4.9-0.6-8.9c-0.4-3.9-0.6-6.9-0.6-8.8c0-1,0.2-2.5,0.7-4.5c0.5-2,0.7-3.4,0.7-4.2c0-1.3-1.5-2.4-4.5-3.2
			c-1.3,1.3-1.9,3.1-1.9,5.3c0,7.2,0.1,11.3,0.2,12.5c0.5,5.5,2,9.1,4.5,10.7c0,1.6-1,3-3.1,4.3c-2,1.3-3.1,2.7-3.1,4.1
			c0,0.5,0.1,1,0.3,1.6c-0.2,0.8-0.9,1.2-2,1.2c-1.7,0-3.7-0.9-6.1-2.7c-2.8-2-4.8-3.2-6-3.6l-0.3-2.1c2.8-1.4,4.2-4.2,4.2-8.1
			c0-2.9,0.1-7.6,0.4-14c0.2-6.4,0.4-11.2,0.4-14.5c0-5.4-0.2-10-0.7-13.9c-0.1-0.5-0.5-1.1-1.2-2c-0.7-0.8-1.1-1.5-1.1-2
			c0-1.4,0.8-2.1,2.3-2.1c0.7,0,1.5,0.2,2.6,0.7c1.1,0.5,1.8,0.7,2.3,0.7c0.8,0,1.9-0.7,3.2-2.2c1.4-1.5,3.2-2.2,5.3-2.2
			c1.9,0,3.8,0.5,5.5,1.6c2,1.3,3,2.8,3,4.6c0-0.2-0.2,0.8-0.6,2.9c-0.9,1-2,1.4-3.1,1.4c-1.1,0-1.9-0.8-2.4-2.3
			c-0.5-1.5-0.9-2.3-1.2-2.3c-1.2,0-2.1,1.3-2.7,4c-0.4,1.8-0.6,3.7-0.6,5.6c0,3.7,0.4,5.6,1.1,5.6c0.5,0,0.9-0.5,1.3-1.6
			c-0.1-0.4,0.2-0.9,0.8-1.5c0.6-0.6,1-0.9,1.3-0.9c1.1,0,3.8,1.2,8.2,3.6C504.6,40.2,506.8,41.7,506.8,42.3z"/>
		<path class="st0" d="M538.3,52.4c0.1,1.4-1.4,3-4.4,4.6c-4.8,2.6-7.5,4.3-8.3,5c-3.1,2.3-4.6,5.1-4.6,8.3c1,0.7,2.4,1.1,4.2,1.2
			l4.5,0.2c0.4-0.4,0.7-1.7,0.9-3.9c0.1-1.8,0.8-2.7,2.2-2.7c2.3-0.1,3.5,1.3,3.5,4c0.1,3.8-2.3,7.8-7.2,11.7v0.6
			c0,2.2-0.8,3.3-2.4,3.3c-1.5,0-5.1-1.2-10.7-3.6c-5.6-2.4-8.4-4-8.4-4.8c0-0.7,0.3-1.5,1-2.4c0.7-0.9,1-1.7,1.1-2.2
			c0.2-1.1,0.2-3.8,0.2-8.1c0-2.7,0-5.4,0-8c0-3.4-0.2-6.1-0.7-7.9c-0.1-0.4-0.3-0.9-0.9-1.5c-0.5-0.6-0.8-1.2-0.8-1.8
			c0-0.3,0.1-0.5,0.2-0.6c0.7-0.9,2.4-1.7,5-2.3c3.7-1,6.1-1.8,7.4-2.3c2.8-1.3,5-3.1,6.4-5.4c1.4,0,3.8,2.9,7.1,8.6
			C536.7,47.6,538.3,51,538.3,52.4z M525.3,54.3c0-1-0.3-2.4-0.9-4.1c-0.8-1.9-1.6-3.2-2.5-3.8v7.8c0,1.1,0.4,2,1.1,2.7
			C524.3,56.2,525,55.3,525.3,54.3z"/>
	</g>
	<g>
		<path class="st0" d="M135.6,159.5c-2.2,17.2-6.5,31.1-12.8,41.5c-8.6,14-20.4,21.1-35.4,21.1c-17.8,0-30.7-6.4-38.9-19.3
			c-5.2-8.1-9.8-22.5-13.9-43.2c1.1-1.1,3.3-6.7,6.8-17c3.5-10.3,7.8-18,13-23.2c7.8-7.9,18.3-11.8,31.6-11.8
			c9.6,0,16.7,1.1,21.4,3.3c5.2,2.4,10.8,7.6,16.8,15.5c2.7,3.5,4.8,8.9,6.4,16.3C132.3,150.9,134,156.5,135.6,159.5z M105.1,164.5
			c-1.4-2.9-2.1-6.6-2.2-11c0.1,3.4,0.2-0.4,0.2-11.3c0-5.9-1.3-11.1-3.8-15.7c-3.1-5.6-7.4-8.5-12.9-8.5c-7,0-12.2,5.2-15.6,15.5
			c-2.3,7.1-3.5,15.2-3.5,24.3c0,3.3,0.9,6,2.6,8.2c0.5,8.8,1.1,17.7,1.8,26.7c1.8,12.6,6.2,18.9,13.1,18.9c6.3,0,10.8-3.1,13.7-9.3
			c1.9-4,3.3-10.6,4.1-19.7C103.3,172.9,104.2,166.8,105.1,164.5z"/>
		<path class="st0" d="M195.4,145.6c0,1.1-0.6,2.6-1.9,4.5c-1.3,2-1.8,3.8-1.6,5.5c0.4,3.7,0.4,8.5,0,14.4
			c-0.4,7.8-0.6,12.5-0.6,14.4c0,3.5,0.5,7.2,1.4,11.1c0.9,3.9,1.4,5.9,1.4,6.1c0,3.8-3.2,7.2-9.6,10c-8,3.7-12.8,6.5-14.4,8.5
			c-1.1,1.4-2.8,2.1-5.3,2.1c-1.8,0-3.9-0.4-6.4-1.1c-1.9-2.7-5.5-5.2-10.8-7.7c-5.7-2.6-9.6-4.9-11.5-7c1.9-4.4,3.1-11.2,3.5-20.6
			c0.1-2.2,0.2-9.4,0.2-21.4c0-3.7,0.2-9.3,0.7-16.7c0.5-7.4,0.7-12.9,0.7-16.7c0-4.6-0.6-8.7-1.8-12.3c-0.7-2.2-1.9-4.6-3.5-7
			c-1.2-1.9-1.8-3.2-1.8-3.8c0-1.9,1.5-2.9,4.5-2.9c1.7,0,3.9,0.8,6.5,2.3c2.6,1.5,4.5,2.4,5.8,2.6c1.6-2.4,4.2-4.6,7.8-6.4
			c3.3-1.6,6.5-2.4,9.6-2.4c4.4,0,7.9,1.1,10.8,3.3c2.8,2.2,4.2,5.5,4.2,9.7c0,6.3-2.6,9.4-7.7,9.4c-2.1,0-3.5-1.1-4.1-3.2
			c-0.2-0.9-0.3-2.7-0.3-5.6c0-2.1-1-3.2-2.9-3.2c-2.8,0-5.1,2.4-6.9,7.3c-1.4,3.7-2.1,7.3-2.1,10.8c0,6.6,0.7,9.9,2.2,9.9
			c1.2,0,2.2-1.3,3.2-3.8s1.8-3.8,2.4-3.8c3.3,0,7.8,1.7,13.4,5c5.6,3.4,10.1,5.1,13.2,5.2C194.9,143.3,195.4,144.3,195.4,145.6z
			 M172.5,154.7c-3.2-2.6-6.6-3.8-10.4-3.8c-0.3,2.3-0.5,4.7-0.5,7c0,2.4,0.2,6.1,0.6,10.9c0.4,4.8,0.6,8.4,0.6,10.8
			c0,6.2-1,11.5-3,16.1c2.1,2.2,4.7,3.3,7.8,3.3c1.3,0,2.4-0.2,3.5-0.5c-1-5.7-1.4-11.5-1.4-17.2
			C169.8,173.5,170.7,164.6,172.5,154.7z"/>
		<path class="st0" d="M252.1,143c0,2.1-1.6,4.8-4.7,8.1c-3.1,3.2-4.7,6.6-4.7,10.1c0,1.9-1.4,2.9-4.3,2.9c-3.4,0-5.5-1.6-6.3-4.9
			c-0.8-3.2-1.9-4.9-3.4-4.9c-1.6,0-2.4,2.2-2.4,6.5c0,1.5,0.2,3.7,0.5,6.6c0.3,2.9,0.5,5.1,0.5,6.5c0,11.2-1,17.9-2.9,20.3
			c0.7,1.6,3.3,2.9,7.8,3.8c4,0.9,6.1,2.5,6.1,4.9c0,2.7-1.3,4.6-4,5.7c-3.5,1.5-5.5,2.4-5.8,2.8c-0.4,0.4-0.8,2.4-1.4,6.1
			c-0.5,2.9-1.8,4.3-3.8,4.3c-1.9,0-6-1.9-12.1-5.6c-4.3-2.6-8.5-5.1-12.6-7.7c-0.2-0.5-0.3-1.2-0.3-1.9c0-1,0.6-2.1,1.9-3.4
			c1.3-1.3,2-2.2,2.2-2.6c1.4-2.9,2.1-10,2.1-21.5c0-11.7-0.3-18.7-1-20.9c-0.2-0.9-1.5-2.1-3.8-3.7c-2.3-1.6-3.5-3.1-3.5-4.4
			c0-1,0.6-2,1.8-3.2c1.2-1.2,2.6-4.3,4.1-9.3c1.2-3.8,2.8-5.7,4.9-5.7c7.9,0,14,3.5,18.5,10.4c2-0.2,3.6-1.8,4.8-4.9
			c1.2-3,2.5-4.5,4-4.5c2,0,5.5,1.2,10.4,3.7C249.6,139.1,252.1,141.2,252.1,143z"/>
		<path class="st0" d="M311.7,201.3c0,2-1.5,4.4-4.6,7.1c-3.1,2.7-4.6,5.2-4.6,7.4c0,0.3,0.1,0.8,0.4,1.5c0.3,0.7,0.4,1.3,0.4,1.7
			c0,1.4-1.2,2.1-3.7,2.1c-5,0-9.3-1.8-12.9-5.4c-3.6-3.6-6.3-5.4-8-5.4l-3.4,1.1c0.9,3.9,1.3,6.2,1.3,6.7c0,1-0.7,1.7-2.1,2.2
			c-1.4,0.5-2.6,0.8-3.7,0.8c-2.6,0-6-1.6-10.4-4.8c-4.7-3.4-8.6-5.4-11.6-5.9c-1.9-0.3-2.9-1.6-2.9-4c0-1.8,0.6-2.8,1.9-3
			c3.4-1,5.1-6.3,5.1-16.1c0-2.1-0.1-4.8-0.2-8.1c-0.2-3.2-0.2-5-0.2-5.3c2-1.3,5.8-2.4,11.4-3.4c5.6-1,9.4-2,11.6-3.1
			c3.6-2,5.4-5.2,5.4-9.6c0-3-1.2-5.4-3.7-7.2c-2.4-1.8-5.2-2.7-8.1-2.7c-3.5,0-5.3,1.3-5.3,3.8c0,0.7,1.4,1.8,4.1,3
			s4.1,3.1,4.1,5.6c0,2.2-0.9,4-2.6,5.3c-1.8,1.3-3.8,2-6.1,2c-2.9,0-5.4-1.2-7.6-3.6c-2.2-2.4-3.3-5.1-3.3-8.1c0-3.2,1-6.5,3.1-10
			c2.1-3.5,4.5-5.3,7.4-5.7c2.4-0.2,5.1-2,7.9-5.4c2.8-3.4,5.4-5.1,7.7-5.1c1.1,0,4.9,1.8,11.6,5.3c8.3,4.3,12.7,6.5,13.1,6.7
			c1.6,0.7,2.4,2.2,2.4,4.3c0,3.4-0.4,8.5-1.3,15.3c-0.9,6.8-1.3,12-1.3,15.5c0,9.7,0.7,15.5,2.1,17.4c0.1,0.2,1.4,0.9,4,2.1
			C310.9,197.1,311.7,198.7,311.7,201.3z M281.9,191.4c0-0.8-0.3-3-1-6.4c-0.3-2.6-0.3-4.7,0-6.4c-0.5-1.3-1.3-1.9-2.4-1.9
			c-1.5,0-3.1,1-4.7,2.9c0.6,1.3,1,2.7,1,4.1c0,1.1-0.2,2.7-0.6,4.8c-0.4,2.1-0.6,3.8-0.6,4.9c0,3.2,1.5,4.8,4.5,4.8
			C280.6,198.2,281.9,196,281.9,191.4z"/>
		<path class="st0" d="M458,163.1c-3.7,18.4-8.5,31.9-14.4,40.5c-8.3,12.3-20.4,18.5-36.4,18.5c-3.9,0-9.7-0.7-17.3-2.2
			c-7.6-1.4-13.3-2.2-17-2.2c-1.9,0-4.5,1.2-7.7,3.6c-3.2,2.4-5.6,3.6-7.3,3.6c-1.1,0-2.3-0.7-3.7-2c-1.4-1.3-2.2-2.5-2.2-3.4
			c0-4.1,2.3-7.7,7-10.7c5.2-3.4,8.2-6.3,8.9-8.8c2.2-7.8,3.4-25,3.4-51.7c0-8.2-0.2-13.2-0.6-15.2c-1.1-5-3.9-8.8-8.5-11.3
			c-2.1-1.2-3.2-2.8-3.2-4.8c0-5.1,2.4-7.7,7.3-7.7c1.8,0,4.1,1,6.9,3c2.8,2,5,3,6.7,3c2.7,0,8.3-0.9,16.9-2.7
			c8.6-1.8,15.2-2.7,19.6-2.7c7.3,0,14.9,4,22.7,12.1c7.3,7.6,11.8,15.1,13.2,22.7C454,153,455.9,159.1,458,163.1z M425.5,170.5
			c0-32.9-6.6-49.3-19.9-49.3c-5.8,0-8.8,10.7-8.8,32.1c0,13.8,0.3,23.5,0.8,29c1.1,11.6,3.5,20.7,7.3,27.4c1.8,0.5,3.4,0.8,4.8,0.8
			c5.7,0,10.1-5.5,12.9-16.4C424.5,186.8,425.5,178.9,425.5,170.5z"/>
		<path class="st0" d="M491.2,202.1c-0.4,1.5-2.3,4.1-5.6,8c-2.7,3.1-3.7,6.1-3.2,8.9c-1.5,1.5-3,2.2-4.5,2.2c-0.9,0-4.4-2-10.6-6.1
			c-6.2-4-9.5-6.4-10-7.2c3.5-6.5,5.3-15.8,5.3-27.9c0-9.5,0-14.6,0-15.3c-0.6-6.8-2.3-11.1-4.9-12.9c0-2.2,1.5-5.2,4.4-8.8
			c2.9-3.6,4.1-6.8,3.6-9.4c1.5-1,3-1.4,4.5-1.4c2.2,0,5.1,1.5,8.6,4.5c3.8,3.3,6.8,5.2,8.8,5.6c0.7,1.1,1.1,2.2,1.1,3.5
			c0,1.1-0.4,2.2-1.1,3.5c-2.6,4.4-3.8,13.3-3.8,27C483.7,190.7,486.2,199.3,491.2,202.1z M486.9,115.4c-1.9,0.6-3.9,2.9-5.9,6.9
			c-2,3.9-3.8,5.9-5.4,5.9c-1.5,0-3.4-1.2-5.7-3.5c-0.3-1.6-1.8-3.2-4.4-4.9c-2.6-1.6-3.9-3.1-3.9-4.4c0-1.6,1.4-3.6,4.1-6.1
			c2.7-2.5,4.2-4.7,4.4-6.6c1.1-0.2,1.8-0.3,2.2-0.3c3.1,0,6.1,1.5,8.9,4.5C483.6,109.3,485.5,112.2,486.9,115.4z"/>
		<path class="st0" d="M557.9,203.2v1c-3.8,3-6.3,5.1-7.3,6.4c-2.2,2.7-3.1,5.6-2.7,8.9c-0.7,1.5-1.6,2.1-2.7,1.8h-1.6
			c-1.6,0-4.8-2-9.7-6.1c-4.8-4-7.3-6.6-7.3-7.8c0-1.3,0.5-3,1.6-5.3c1.1-2.2,1.6-4,1.6-5.4c0-1.3-0.2-3.1-0.6-5.6
			c-0.4-2.4-0.6-4.3-0.6-5.6c0-7,0.8-17.2,2.4-30.6c-1.6-1.3-3.2-2.5-4.8-3.7c-2-1.3-3.9-1.9-5.6-1.8l-0.8,0.2
			c-0.5,1.2-0.8,2.7-0.8,4.6c0,2.3,0.4,4.6,1.1,6.7c-0.6,2-1,4.3-1,6.9c0,1.8,0.2,4.6,0.7,8.4c0.5,3.8,0.7,6.6,0.7,8.4
			c0,1.4-0.4,3.3-1.2,5.8c-0.8,2.5-1.2,4.2-1.2,5.2c0,1.4,1.3,2.6,3.9,3.5c2.6,1,3.9,2,3.9,3.2c0,1.1-1.6,3.2-4.9,6.5
			c-3.2,3.3-4.6,7-4.1,11c-0.9,1-2.1,1.4-3.8,1.4c-0.3,0-1-0.2-2.2-0.5c-1.1-0.3-1.8-0.5-2-0.5c-0.9-1.3-3.8-3.3-8.9-6.1
			c-4.1-2.3-6.2-4.8-6.2-7.3c0-1.2,0.6-2.4,1.7-3.7c1.1-1.3,1.7-2.4,1.8-3.1c0.7-4.1,1.1-14,1.1-29.5c0-4.5-0.3-8.9-1-13.4
			c-0.3-0.4-1.8-1.3-4.3-2.7c-2-1.1-3-2.2-3-3.3c0,0.2,0.3-0.6,1-2.6c2.9-0.7,4.6-2.5,5.1-5.3c0.4-2.3,0.8-4.7,1.3-7
			c1.1-2.3,3.7-3.5,7.8-3.5c2.9,0,5.8,1.3,8.9,3.8c3,2.6,5.2,3.8,6.5,3.8c1.8,0,3-2.1,3.7-6.2c1.3-1.3,2.6-1.9,4-1.9
			c2,0,5.6,1.5,10.7,4.6c5.1,3.1,9.5,4.6,13.1,4.5c1.1,1.1,1.6,2.2,1.6,3.5c0,1.2-0.5,2.9-1.4,5.1c-0.9,2.2-1.4,4-1.4,5.4
			c0,2.8-0.3,6.9-0.8,12.4c-0.5,5.5-0.8,9.7-0.8,12.4c0,7.2,0.5,12.2,1.4,14.8c0.3,1.1,1.6,2.3,4,3.7
			C556.9,200,557.9,201.5,557.9,203.2z"/>
		<path class="st0" d="M624.4,203.2v1c-3.8,3-6.3,5.1-7.3,6.4c-2.2,2.7-3.1,5.6-2.7,8.9c-0.7,1.5-1.7,2.1-2.7,1.8H610
			c-1.6,0-4.8-2-9.7-6.1c-4.8-4-7.3-6.6-7.3-7.8c0-1.3,0.5-3,1.6-5.3c1.1-2.2,1.6-4,1.6-5.4c0-1.3-0.2-3.1-0.6-5.6
			c-0.4-2.4-0.6-4.3-0.6-5.6c0-7,0.8-17.2,2.4-30.6c-1.6-1.3-3.2-2.5-4.8-3.7c-2-1.3-3.9-1.9-5.6-1.8l-0.8,0.2
			c-0.5,1.2-0.8,2.7-0.8,4.6c0,2.3,0.4,4.6,1.1,6.7c-0.6,2-1,4.3-1,6.9c0,1.8,0.2,4.6,0.7,8.4c0.5,3.8,0.7,6.6,0.7,8.4
			c0,1.4-0.4,3.3-1.2,5.8c-0.8,2.5-1.2,4.2-1.2,5.2c0,1.4,1.3,2.6,3.9,3.5c2.6,1,3.9,2,3.9,3.2c0,1.1-1.6,3.2-4.9,6.5
			c-3.2,3.3-4.6,7-4.1,11c-0.9,1-2.1,1.4-3.8,1.4c-0.3,0-1-0.2-2.2-0.5c-1.1-0.3-1.8-0.5-2-0.5c-0.9-1.3-3.8-3.3-8.9-6.1
			c-4.1-2.3-6.2-4.8-6.2-7.3c0-1.2,0.6-2.4,1.7-3.7c1.1-1.3,1.7-2.4,1.8-3.1c0.7-4.1,1.1-14,1.1-29.5c0-4.5-0.3-8.9-1-13.4
			c-0.3-0.4-1.8-1.3-4.3-2.7c-2-1.1-3-2.2-3-3.3c0,0.2,0.3-0.6,1-2.6c2.9-0.7,4.6-2.5,5.1-5.3c0.4-2.3,0.8-4.7,1.3-7
			c1.1-2.3,3.7-3.5,7.8-3.5c2.9,0,5.8,1.3,8.9,3.8c3,2.6,5.2,3.8,6.5,3.8c1.8,0,3-2.1,3.7-6.2c1.3-1.3,2.6-1.9,4-1.9
			c2,0,5.6,1.5,10.7,4.6c5.1,3.1,9.5,4.6,13.1,4.5c1.1,1.1,1.6,2.2,1.6,3.5c0,1.2-0.5,2.9-1.4,5.1c-0.9,2.2-1.4,4-1.4,5.4
			c0,2.8-0.3,6.9-0.8,12.4c-0.5,5.5-0.8,9.7-0.8,12.4c0,7.2,0.5,12.2,1.4,14.8c0.3,1.1,1.6,2.3,4,3.7
			C623.4,200,624.4,201.5,624.4,203.2z"/>
	</g>
</g>
</svg>
